<svg xmlns="http://www.w3.org/2000/svg" width="1601" height="955" viewBox="0 0 641 382" font-family="Arial, sans-serif">
  <defs>
    <marker id="ah" viewBox="0 0 8 6" refX="8" refY="3"
      markerWidth="4" markerHeight="3" orient="auto">
      <path d="M0.5,0.5 L7,3 L0.5,5.5" fill="none" stroke="#94A3B8"
        stroke-width="1.2" stroke-linejoin="round" stroke-linecap="round"/>
    </marker>
    <filter id="shadow" x="-6%" y="-8%" width="112%" height="128%">
      <feDropShadow dx="0" dy="0.5" stdDeviation="0.8"
        flood-color="#000" flood-opacity="0.05"/>
    </filter>
  </defs>
  <rect width="641" height="382" fill="#F8F9FB" rx="3"/>
  <text x="320" y="11" text-anchor="middle" font-size="6" font-weight="700" fill="#1E293B">Midas Protocol Architecture</text>
  <rect x="245" y="16" width="150" height="10" rx="3" fill="#fff" stroke="#E2E5EA" stroke-width="0.4"/>
  <rect x="250" y="18.5" width="5" height="5" rx="2.5" fill="#fff" stroke="#E2E5EA" stroke-width="0.4"/>
  <text x="258" y="22.5" font-size="3.5" fill="#1E293B">Actor</text>
  <rect x="290" y="18.5" width="5" height="5" rx="1.5" fill="#fff" stroke="#E2E5EA" stroke-width="0.4"/>
  <rect x="291" y="19.5" width="0.8" height="3" rx="0.4" fill="#3B82F6"/>
  <text x="298" y="22.5" font-size="3.5" fill="#1E293B">Protocol</text>
  <rect x="338" y="18.5" width="5" height="5" rx="1.5" fill="#fff" stroke="#E2E5EA" stroke-width="0.4"/>
  <rect x="339" y="19.5" width="0.8" height="3" rx="0.4" fill="#F59E0B"/>
  <text x="346" y="22.5" font-size="3.5" fill="#1E293B">External</text>
  <rect x="82.8" y="84.0" width="537.8" height="102.0" rx="5" fill="#EDEEF2"/>
  <text x="617.6" y="89.0" text-anchor="end" font-size="3.5" fill="#94A3B8" font-weight="500">Vault Layer</text>
  <rect x="82.8" y="146.0" width="537.8" height="102.0" rx="5" fill="#EDEEF2"/>
  <text x="617.6" y="151.0" text-anchor="end" font-size="3.5" fill="#94A3B8" font-weight="500">Governance &amp; Oracles</text>
  <path d="M113.2,46.0 C113.2,70.0 131.6,70.0 131.6,94.0" fill="none" stroke="#94A3B8" stroke-width="0.5" marker-end="url(#ah)"/>
  <path d="M113.2,46.0 C113.2,70.0 238.4,70.0 238.4,94.0" fill="none" stroke="#94A3B8" stroke-width="0.5" marker-end="url(#ah)"/>
  <path d="M199.6,46.0 C199.6,70.0 131.6,70.0 131.6,94.0" fill="none" stroke="#94A3B8" stroke-width="0.5" marker-end="url(#ah)"/>
  <path d="M199.6,46.0 C199.6,70.0 238.4,70.0 238.4,94.0" fill="none" stroke="#94A3B8" stroke-width="0.5" marker-end="url(#ah)"/>
  <path d="M131.6,114.0 C131.6,135.0 162.9,135.0 162.9,156.0" fill="none" stroke="#94A3B8" stroke-width="0.5" marker-end="url(#ah)"/>
  <path d="M238.4,114.0 C238.4,135.0 162.9,135.0 162.9,156.0" fill="none" stroke="#94A3B8" stroke-width="0.5" marker-end="url(#ah)"/>
  <path d="M131.6,114.0 C131.6,135.0 260.9,135.0 260.9,156.0" fill="none" stroke="#94A3B8" stroke-width="0.5" marker-end="url(#ah)"/>
  <path d="M238.4,114.0 C238.4,135.0 260.9,135.0 260.9,156.0" fill="none" stroke="#94A3B8" stroke-width="0.5" marker-end="url(#ah)"/>
  <path d="M260.9,176.0 C260.9,197.0 274.2,197.0 274.2,218.0" fill="none" stroke="#94A3B8" stroke-width="0.5" marker-end="url(#ah)"/>
  <path d="M306.9,174.0 C333.2,188.0 368.3,188.0 394.6,176.0" fill="none" stroke="#94A3B8" stroke-width="0.5" marker-end="url(#ah)"/>
  <path d="M192.9,174.0 C253.4,192.0 334.1,192.0 394.6,176.0" fill="none" stroke="#94A3B8" stroke-width="0.5" marker-end="url(#ah)"/>
  <path d="M447.8,176.0 C447.8,197.0 429.0,197.0 429.0,218.0" fill="none" stroke="#94A3B8" stroke-width="0.5" marker-end="url(#ah)"/>
  <path d="M447.8,176.0 C447.8,197.0 559.8,197.0 559.8,218.0" fill="none" stroke="#94A3B8" stroke-width="0.5" marker-end="url(#ah)"/>
  <path d="M274.2,238.0 C274.2,259.0 342.8,259.0 342.8,280.0" fill="none" stroke="#94A3B8" stroke-width="0.5" marker-end="url(#ah)"/>
  <path d="M342.8,280.0 C342.8,311.0 411.4,311.0 411.4,342.0" fill="none" stroke="#94A3B8" stroke-width="0.5" marker-end="url(#ah)"/>
  <path d="M131.6,114.0 C131.6,135.0 126.3,135.0 126.3,156.0" fill="none" stroke="#94A3B8" stroke-width="0.5" marker-end="url(#ah)"/>
  <path d="M126.3,156.0 C126.3,187.0 132.0,187.0 132.0,218.0" fill="none" stroke="#94A3B8" stroke-width="0.5" marker-end="url(#ah)"/>
  <path d="M132.0,218.0 Q153.2,290.0 143.3,280.0" fill="none" stroke="#94A3B8" stroke-width="0.5" marker-end="url(#ah)"/>
  <path d="M143.3,280.0 Q149.2,290.0 154.6,342.0" fill="none" stroke="#94A3B8" stroke-width="0.5" marker-end="url(#ah)"/>
  <path d="M238.4,114.0 Q204.9,166.0 219.7,156.0" fill="none" stroke="#94A3B8" stroke-width="0.5" marker-end="url(#ah)"/>
  <path d="M219.7,156.0 L202.9,166.0 L187.4,228.0 L198.8,218.0" fill="none" stroke="#94A3B8" stroke-width="0.5" marker-end="url(#ah)"/>
  <path d="M198.8,218.0 Q191.4,228.0 176.7,280.0" fill="none" stroke="#94A3B8" stroke-width="0.5" marker-end="url(#ah)"/>
  <path d="M176.7,280.0 C176.7,311.0 154.6,311.0 154.6,342.0" fill="none" stroke="#94A3B8" stroke-width="0.5" marker-end="url(#ah)"/>
  <path d="M113.2,46.0 Q80.8,104.0 95.3,94.0" fill="none" stroke="#94A3B8" stroke-width="0.5" marker-end="url(#ah)"/>
  <path d="M95.3,94.0 Q84.8,104.0 88.4,156.0" fill="none" stroke="#94A3B8" stroke-width="0.5" marker-end="url(#ah)"/>
  <path d="M88.4,156.0 C88.4,187.0 87.0,187.0 87.0,218.0" fill="none" stroke="#94A3B8" stroke-width="0.5" marker-end="url(#ah)"/>
  <path d="M87.0,218.0 C87.0,249.0 85.6,249.0 85.6,280.0" fill="none" stroke="#94A3B8" stroke-width="0.5" marker-end="url(#ah)"/>
  <path d="M85.6,280.0 C85.6,249.0 100.0,249.0 100.0,218.0" fill="none" stroke="#94A3B8" stroke-width="0.5" marker-end="url(#ah)"/>
  <path d="M100.0,218.0 C100.0,187.0 114.4,187.0 114.4,156.0" fill="none" stroke="#94A3B8" stroke-width="0.5" marker-end="url(#ah)"/>
  <path d="M114.4,156.0 C114.4,135.0 131.6,135.0 131.6,114.0" fill="none" stroke="#94A3B8" stroke-width="0.5" marker-end="url(#ah)"/>
  <path d="M85.6,280.0 C85.6,249.0 136.7,249.0 136.7,218.0" fill="none" stroke="#94A3B8" stroke-width="0.5" marker-end="url(#ah)"/>
  <path d="M136.7,218.0 Q122.9,166.0 187.8,156.0" fill="none" stroke="#94A3B8" stroke-width="0.5" marker-end="url(#ah)"/>
  <path d="M187.8,156.0 Q204.9,166.0 238.4,114.0" fill="none" stroke="#94A3B8" stroke-width="0.5" marker-end="url(#ah)"/>
  <path d="M131.6,114.0 Q124.9,166.0 141.7,156.0" fill="none" stroke="#94A3B8" stroke-width="0.5" marker-end="url(#ah)"/>
  <path d="M141.7,156.0 Q122.9,166.0 178.4,218.0" fill="none" stroke="#94A3B8" stroke-width="0.5" marker-end="url(#ah)"/>
  <path d="M178.4,218.0 Q187.4,228.0 228.3,280.0" fill="none" stroke="#94A3B8" stroke-width="0.5" marker-end="url(#ah)"/>
  <path d="M228.3,280.0 C228.3,311.0 278.2,311.0 278.2,342.0" fill="none" stroke="#94A3B8" stroke-width="0.5" marker-end="url(#ah)"/>
  <path d="M238.4,114.0 Q204.9,166.0 235.2,156.0" fill="none" stroke="#94A3B8" stroke-width="0.5" marker-end="url(#ah)"/>
  <path d="M235.2,156.0 L202.9,166.0 L187.4,228.0 L245.1,218.0" fill="none" stroke="#94A3B8" stroke-width="0.5" marker-end="url(#ah)"/>
  <path d="M245.1,218.0 Q191.4,228.0 261.7,280.0" fill="none" stroke="#94A3B8" stroke-width="0.5" marker-end="url(#ah)"/>
  <path d="M261.7,280.0 C261.7,311.0 278.2,311.0 278.2,342.0" fill="none" stroke="#94A3B8" stroke-width="0.5" marker-end="url(#ah)"/>
  <g filter="url(#shadow)">
    <rect x="85.2" y="32.0" width="56.0" height="14" rx="7" fill="#fff" stroke="#E2E5EA" stroke-width="0.5"/>
    <text x="113.2" y="40.8" text-anchor="middle" font-size="4.8" font-weight="600" fill="#1E293B">User</text>
  </g>
  <g filter="url(#shadow)">
    <rect x="163.2" y="32.0" width="72.8" height="14" rx="7" fill="#fff" stroke="#E2E5EA" stroke-width="0.5"/>
    <text x="199.6" y="40.8" text-anchor="middle" font-size="4.8" font-weight="600" fill="#1E293B">Vault Admin</text>
  </g>
  <g filter="url(#shadow)">
    <rect x="92.8" y="94.0" width="77.6" height="20" rx="3" fill="#fff" stroke="#E2E5EA" stroke-width="0.5"/>
    <rect x="95.8" y="97.0" width="1.4" height="14" rx="0.6" fill="#3B82F6"/>
    <text x="131.6" y="103.5" text-anchor="middle" font-size="4.8" font-weight="600" fill="#1E293B">DepositVault</text>
    <text x="131.6" y="108.5" text-anchor="middle" font-size="3.5" fill="#64748B">Mint</text>
  </g>
  <g filter="url(#shadow)">
    <rect x="192.4" y="94.0" width="92.0" height="20" rx="3" fill="#fff" stroke="#E2E5EA" stroke-width="0.5"/>
    <rect x="195.4" y="97.0" width="1.4" height="14" rx="0.6" fill="#3B82F6"/>
    <text x="238.4" y="103.5" text-anchor="middle" font-size="4.8" font-weight="600" fill="#1E293B">RedemptionVault</text>
    <text x="238.4" y="108.5" text-anchor="middle" font-size="3.5" fill="#64748B">Burn</text>
  </g>
  <g filter="url(#shadow)">
    <rect x="132.9" y="156.0" width="60.0" height="20" rx="3" fill="#fff" stroke="#E2E5EA" stroke-width="0.5"/>
    <rect x="135.9" y="159.0" width="1.4" height="14" rx="0.6" fill="#3B82F6"/>
    <text x="162.9" y="165.5" text-anchor="middle" font-size="4.8" font-weight="600" fill="#1E293B">mToken</text>
    <text x="162.9" y="170.5" text-anchor="middle" font-size="3.5" fill="#64748B">ERC20</text>
  </g>
  <g filter="url(#shadow)">
    <rect x="214.9" y="156.0" width="92.0" height="20" rx="3" fill="#fff" stroke="#E2E5EA" stroke-width="0.5"/>
    <rect x="217.9" y="159.0" width="1.4" height="14" rx="0.6" fill="#3B82F6"/>
    <text x="260.9" y="165.5" text-anchor="middle" font-size="4.8" font-weight="600" fill="#1E293B">ManageableVault</text>
    <text x="260.9" y="170.5" text-anchor="middle" font-size="3.5" fill="#64748B">Shared base</text>
  </g>
  <g filter="url(#shadow)">
    <rect x="394.6" y="156.0" width="106.4" height="20" rx="3" fill="#fff" stroke="#E2E5EA" stroke-width="0.5"/>
    <rect x="397.6" y="159.0" width="1.4" height="14" rx="0.6" fill="#3B82F6"/>
    <text x="447.8" y="165.5" text-anchor="middle" font-size="4.8" font-weight="600" fill="#1E293B">MidasAccessControl</text>
    <text x="447.8" y="170.5" text-anchor="middle" font-size="3.5" fill="#64748B">Roles</text>
  </g>
  <g filter="url(#shadow)">
    <rect x="371.0" y="218.0" width="116.0" height="20" rx="3" fill="#fff" stroke="#E2E5EA" stroke-width="0.5"/>
    <rect x="374.0" y="221.0" width="1.4" height="14" rx="0.6" fill="#3B82F6"/>
    <text x="429.0" y="227.5" text-anchor="middle" font-size="4.8" font-weight="600" fill="#1E293B">MidasTimelockManager</text>
    <text x="429.0" y="232.5" text-anchor="middle" font-size="3.5" fill="#64748B">Governance</text>
  </g>
  <g filter="url(#shadow)">
    <rect x="509.0" y="218.0" width="101.6" height="20" rx="3" fill="#fff" stroke="#E2E5EA" stroke-width="0.5"/>
    <rect x="512.0" y="221.0" width="1.4" height="14" rx="0.6" fill="#3B82F6"/>
    <text x="559.8" y="227.5" text-anchor="middle" font-size="4.8" font-weight="600" fill="#1E293B">MidasPauseManager</text>
    <text x="559.8" y="232.5" text-anchor="middle" font-size="3.5" fill="#64748B">Circuit breaker</text>
  </g>
  <g filter="url(#shadow)">
    <rect x="199.4" y="218.0" width="149.6" height="20" rx="3" fill="#fff" stroke="#E2E5EA" stroke-width="0.5"/>
    <rect x="202.4" y="221.0" width="1.4" height="14" rx="0.6" fill="#3B82F6"/>
    <text x="274.2" y="227.5" text-anchor="middle" font-size="4.8" font-weight="600" fill="#1E293B">DataFeed / CustomAggregator</text>
    <text x="274.2" y="232.5" text-anchor="middle" font-size="3.5" fill="#64748B">Oracles</text>
  </g>
  <g filter="url(#shadow)">
    <rect x="30.0" y="280.0" width="111.2" height="20" rx="3" fill="#fff" stroke="#E2E5EA" stroke-width="0.5"/>
    <rect x="33.0" y="283.0" width="1.4" height="14" rx="0.6" fill="#3B82F6"/>
    <text x="85.6" y="289.5" text-anchor="middle" font-size="4.8" font-weight="600" fill="#1E293B">LzComposer / Axelar</text>
    <text x="85.6" y="294.5" text-anchor="middle" font-size="3.5" fill="#64748B">Bridge</text>
  </g>
  <g filter="url(#shadow)">
    <rect x="343.8" y="342.0" width="135.2" height="20" rx="3" fill="#fff" stroke="#E2E5EA" stroke-width="0.5"/>
    <rect x="346.8" y="345.0" width="1.4" height="14" rx="0.6" fill="#F59E0B"/>
    <text x="411.4" y="351.5" text-anchor="middle" font-size="4.8" font-weight="600" fill="#1E293B">Chainlink / Pyth / Stork</text>
    <text x="411.4" y="356.5" text-anchor="middle" font-size="3.5" fill="#64748B">External</text>
  </g>
  <g filter="url(#shadow)">
    <rect x="96.6" y="342.0" width="116.0" height="20" rx="3" fill="#fff" stroke="#E2E5EA" stroke-width="0.5"/>
    <rect x="99.6" y="345.0" width="1.4" height="14" rx="0.6" fill="#F59E0B"/>
    <text x="154.6" y="351.5" text-anchor="middle" font-size="4.8" font-weight="600" fill="#1E293B">Morpho / Aave / USTB</text>
    <text x="154.6" y="356.5" text-anchor="middle" font-size="3.5" fill="#64748B">Strategies</text>
  </g>
  <g filter="url(#shadow)">
    <rect x="234.6" y="342.0" width="87.2" height="20" rx="3" fill="#fff" stroke="#E2E5EA" stroke-width="0.5"/>
    <rect x="237.6" y="345.0" width="1.4" height="14" rx="0.6" fill="#F59E0B"/>
    <text x="278.2" y="351.5" text-anchor="middle" font-size="4.8" font-weight="600" fill="#1E293B">Payment Tokens</text>
    <text x="278.2" y="356.5" text-anchor="middle" font-size="3.5" fill="#64748B">USDC etc</text>
  </g>
  <rect x="103.6" y="65.0" width="37.6" height="6.0" rx="1" fill="#F8F9FB"/>
  <text x="122.4" y="70.0" font-size="4" fill="#1E293B" font-weight="500" text-anchor="middle">deposit tokens</text>
  <rect x="158.2" y="65.0" width="35.2" height="6.0" rx="1" fill="#F8F9FB"/>
  <text x="175.8" y="70.0" font-size="4" fill="#1E293B" font-weight="500" text-anchor="middle">redeem mToken</text>
  <rect x="144.4" y="57.0" width="42.4" height="6.0" rx="1" fill="#F8F9FB"/>
  <text x="165.6" y="62.0" font-size="4" fill="#1E293B" font-weight="500" text-anchor="middle">approve requests</text>
  <rect x="197.8" y="65.0" width="42.4" height="6.0" rx="1" fill="#F8F9FB"/>
  <text x="219.0" y="70.0" font-size="4" fill="#1E293B" font-weight="500" text-anchor="middle">approve requests</text>
  <rect x="132.0" y="130.0" width="30.4" height="6.0" rx="1" fill="#EDEEF2"/>
  <text x="147.2" y="135.0" font-size="4" fill="#1E293B" font-weight="500" text-anchor="middle">mint shares</text>
  <rect x="185.4" y="130.0" width="30.4" height="6.0" rx="1" fill="#EDEEF2"/>
  <text x="200.6" y="135.0" font-size="4" fill="#1E293B" font-weight="500" text-anchor="middle">burn shares</text>
  <rect x="176.2" y="122.0" width="40.0" height="6.0" rx="1" fill="#EDEEF2"/>
  <text x="196.2" y="127.0" font-size="4" fill="#1E293B" font-weight="500" text-anchor="middle">inherits config</text>
  <rect x="229.6" y="130.0" width="40.0" height="6.0" rx="1" fill="#EDEEF2"/>
  <text x="249.6" y="135.0" font-size="4" fill="#1E293B" font-weight="500" text-anchor="middle">inherits config</text>
  <rect x="253.5" y="192.0" width="28.0" height="6.0" rx="1" fill="#EDEEF2"/>
  <text x="267.5" y="197.0" font-size="4" fill="#1E293B" font-weight="500" text-anchor="middle">read rates</text>
  <rect x="331.9" y="187.0" width="37.6" height="6.0" rx="1" fill="#EDEEF2"/>
  <text x="350.7" y="192.0" font-size="4" fill="#1E293B" font-weight="500" text-anchor="middle">validate roles</text>
  <rect x="284.1" y="189.0" width="35.2" height="6.0" rx="1" fill="#EDEEF2"/>
  <text x="301.7" y="194.0" font-size="4" fill="#1E293B" font-weight="500" text-anchor="middle">mint/burn ACL</text>
  <rect x="422.0" y="192.0" width="32.8" height="6.0" rx="1" fill="#EDEEF2"/>
  <text x="438.4" y="197.0" font-size="4" fill="#1E293B" font-weight="500" text-anchor="middle">schedule ops</text>
  <rect x="488.6" y="192.0" width="30.4" height="6.0" rx="1" fill="#EDEEF2"/>
  <text x="503.8" y="197.0" font-size="4" fill="#1E293B" font-weight="500" text-anchor="middle">pause gates</text>
  <rect x="361.9" y="306.0" width="30.4" height="6.0" rx="1" fill="#F8F9FB"/>
  <text x="377.1" y="311.0" font-size="4" fill="#1E293B" font-weight="500" text-anchor="middle">pull prices</text>
  <rect x="136.1" y="305.2" width="30.4" height="6.0" rx="1" fill="#F8F9FB"/>
  <text x="151.3" y="310.2" font-size="4" fill="#1E293B" font-weight="500" text-anchor="middle">auto-invest</text>
  <rect x="144.4" y="298.0" width="42.4" height="6.0" rx="1" fill="#F8F9FB"/>
  <text x="165.6" y="303.0" font-size="4" fill="#1E293B" font-weight="500" text-anchor="middle">obtain liquidity</text>
  <rect x="71.1" y="244.0" width="30.4" height="6.0" rx="1" fill="#F8F9FB"/>
  <text x="86.3" y="249.0" font-size="4" fill="#1E293B" font-weight="500" text-anchor="middle">cross-chain</text>
  <rect x="103.0" y="122.0" width="40.0" height="6.0" rx="1" fill="#EDEEF2"/>
  <text x="123.0" y="127.0" font-size="4" fill="#1E293B" font-weight="500" text-anchor="middle">compose deposit</text>
  <rect x="197.5" y="143.3" width="37.6" height="6.0" rx="1" fill="#EDEEF2"/>
  <text x="216.3" y="148.3" font-size="4" fill="#1E293B" font-weight="500" text-anchor="middle">compose redeem</text>
  <rect x="238.0" y="306.0" width="30.4" height="6.0" rx="1" fill="#F8F9FB"/>
  <text x="253.2" y="311.0" font-size="4" fill="#1E293B" font-weight="500" text-anchor="middle">transfer in</text>
  <rect x="253.5" y="298.0" width="32.8" height="6.0" rx="1" fill="#F8F9FB"/>
  <text x="269.9" y="303.0" font-size="4" fill="#1E293B" font-weight="500" text-anchor="middle">transfer out</text>
</svg>